<svg preserveAspectRatio="none" width="100%" height="100%" overflow="visible" style="display: block;" viewBox="0 0 134.016 25.7808" fill="none" xmlns="http://www.w3.org/2000/svg">
<g id="c94c7645-a3dd-48f0-90f8-e91b688c16f6_1">
<path id="Vector" d="M0.203389 25.3102C0.0911183 25.3102 0 25.2191 0 25.1068V7.59989C0 6.72406 0.708809 6.01373 1.58257 6.01373H3.45395C3.56622 6.01373 3.65734 6.10479 3.65734 6.21712V8.78896C3.65734 8.99238 3.93293 9.07624 4.05639 8.91456C4.76134 7.9915 5.62289 7.28766 6.64106 6.80481C7.79814 6.2551 9.00688 5.96624 10.2691 5.93827C10.3814 5.93579 10.4725 6.02709 10.4725 6.13943V7.92278C10.4725 8.72797 9.86945 9.39493 9.07318 9.49887C8.42193 9.5826 7.79163 9.72691 7.18065 9.93173C6.14072 10.2788 5.29422 10.8449 4.63991 11.6299C3.98541 12.4149 3.65836 13.4764 3.65836 14.8133V23.7239C3.65836 24.5998 2.94955 25.3102 2.07579 25.3102H0.203389Z" fill="var(--fill-0, #D8DBDF)"/>
<path id="Vector_2" d="M21.1843 25.7771C19.3098 25.7771 17.6549 25.3463 16.2173 24.4845C14.7798 23.6228 13.6503 22.4331 12.8288 20.9146C12.0074 19.3971 11.5967 17.6475 11.5967 15.6658C11.5967 13.6842 12.0074 11.9354 12.8288 10.4168C13.6503 8.89929 14.7859 7.70964 16.2364 6.84693C17.6862 5.98523 19.3481 5.55439 21.2225 5.55439C22.9932 5.55439 24.5465 5.99837 25.8813 6.8863C27.2162 7.77424 28.2622 9.0345 29.0192 10.6681C29.7527 12.2521 30.131 14.1062 30.1537 16.2332C30.1549 16.3451 30.0633 16.4377 29.9513 16.4377H15.5489C15.4319 16.4377 15.3381 16.539 15.3485 16.6556C15.5089 18.4554 16.1386 19.8689 17.2371 20.8955C18.3787 21.9631 19.7839 22.4968 21.4531 22.4968C22.7365 22.4968 23.3855 22.1951 24.2463 21.5896C24.7647 21.2254 24.8806 21.012 25.2632 20.5296C25.8219 19.8252 25.8455 19.3165 26.8802 19.3165H29.2102C29.3299 19.3165 29.4227 19.4248 29.3992 19.5422C29.2615 20.2325 28.7835 21.1859 28.2603 22.0078C27.7606 22.7927 27.1378 23.4933 26.4122 24.0758C26.0907 24.3339 25.8123 24.5138 25.2632 24.8189C24.0429 25.4291 22.5695 25.7771 21.1832 25.7771L21.1843 25.7771ZM26.0166 13.5428C26.135 13.5428 26.2214 13.442 26.209 13.3243C26.1108 12.3902 25.8415 11.5951 25.4011 10.9375C24.926 10.2302 24.3232 9.68328 23.5912 9.29684C22.8594 8.91139 22.044 8.71765 21.146 8.71765C20.2481 8.71765 19.4256 8.90433 18.6051 9.27766C17.7838 9.651 17.0972 10.1979 16.5456 10.9183C16.0332 11.5861 15.7147 12.3866 15.5899 13.3197C15.574 13.4389 15.6688 13.5428 15.789 13.5428H26.0166Z" fill="var(--fill-0, #D8DBDF)"/>
<path id="Vector_3" d="M33.9731 25.3136C33.8606 25.3138 33.7693 25.2226 33.7693 25.1102V7.60369C33.7693 6.72788 34.4781 6.01753 35.3519 6.01753H37.1468C37.259 6.01753 37.3502 6.10859 37.3502 6.22093V8.10882C37.3502 8.31447 37.6327 8.3978 37.7559 8.23311C38.3289 7.46685 39.0212 6.85698 39.8335 6.40298C40.8472 5.83692 42.009 5.55439 43.3176 5.55439C44.8316 5.55439 46.1473 5.86316 47.2637 6.48068C48.3801 7.0982 49.2399 8.05675 49.8439 9.35535C50.447 10.655 50.7488 12.3592 50.7488 14.469V23.7267C50.7488 24.6025 50.0402 25.313 49.1665 25.313H47.2951C47.1828 25.313 47.0917 25.2218 47.0917 25.1096V15.4338C47.0917 13.684 46.8924 12.3531 46.4947 11.439C46.0961 10.5258 45.5445 9.88912 44.8387 9.52891C44.132 9.16868 43.3176 8.97596 42.3936 8.94973C40.8271 8.94973 39.608 9.50367 38.7363 10.6096C37.8635 11.7164 37.4277 13.2724 37.4277 15.2794V23.7267C37.4277 24.6025 36.7188 25.313 35.8451 25.313H34.3077L33.9731 25.3136Z" fill="var(--fill-0, #D8DBDF)"/>
<path id="Vector_4" d="M60.1991 25.7808C58.2744 25.7808 56.7844 25.2853 55.7325 24.2946C54.6795 23.3047 54.1542 21.883 54.1542 20.0305V1.58769C54.1542 0.71186 54.8628 0.00151062 55.7365 0.00151062H57.6079C57.7202 0.00151062 57.8113 0.09259 57.8113 0.204904V5.81891C57.8113 5.93125 57.9024 6.02231 58.0147 6.02231H63.0752C63.1875 6.02231 63.2786 6.11337 63.2786 6.2257V7.60039C63.2786 8.47622 62.5698 9.18659 61.696 9.18659H58.0147C57.9024 9.18659 57.8113 9.27765 57.8113 9.38999V19.4907C57.8113 20.4432 58.0479 21.1697 58.524 21.6711C58.9991 22.1726 59.6847 22.4238 60.5837 22.4238H63.0752C63.1875 22.4238 63.2786 22.5149 63.2786 22.6272V23.5006C63.2786 24.1108 63.0874 25.026 62.0272 25.4721C61.4404 25.719 60.8142 25.7808 60.1981 25.7808H60.1991Z" fill="var(--fill-0, #D8DBDF)"/>
<path id="Vector_5" d="M73.5688 25.3101C73.4463 25.3101 73.3357 25.2366 73.2881 25.1236L65.9518 7.6285C65.527 6.61154 66.0354 6.01488 66.849 6.01372H68.9551C69.0379 6.01372 69.1125 6.06392 69.1436 6.14064L75.0246 20.6375C75.0934 20.8069 75.3334 20.8067 75.4017 20.6371L80.8975 7.00559C81.1389 6.40623 81.7198 6.01372 82.3651 6.01372H84.8042C84.9492 6.01372 85.0476 6.16141 84.9919 6.2954L77.4687 24.3354C77.222 24.9256 76.6462 25.3101 76.008 25.3101H73.5688Z" fill="var(--fill-0, #D8DBDF)"/>
<path id="Vector_6" d="M88.3989 25.3101C88.2866 25.3101 88.1955 25.2191 88.1955 25.1067V7.59988C88.1955 6.72405 88.9043 6.01372 89.7781 6.01372H91.6494C91.7617 6.01372 91.8528 6.10478 91.8528 6.21712V23.724C91.8528 24.5998 91.144 25.3101 90.2703 25.3101H88.3989Z" fill="var(--fill-0, #D8DBDF)"/>
<path id="Vector_7" d="M91.8538 0.203393C91.8538 0.0910794 91.7627 0 91.6505 0H89.5505C88.8026 0 88.1955 0.607433 88.1955 1.35814V3.46336C88.1955 3.57569 88.2866 3.66675 88.3989 3.66675H90.4989C91.2467 3.66675 91.8538 3.05934 91.8538 2.30863V0.203393Z" fill="var(--fill-0, #D8DBDF)"/>
<path id="Vector_8" d="M95.8552 25.3134C95.7426 25.3138 95.6512 25.2226 95.6512 25.11V7.60369C95.6512 6.72788 96.3601 6.01753 97.2338 6.01753H99.0285C99.141 6.01753 99.2319 6.10859 99.2319 6.22093V8.10882C99.2319 8.31447 99.5146 8.3978 99.6379 8.23311C100.211 7.46685 100.903 6.85698 101.716 6.40298C102.729 5.83692 103.891 5.55439 105.2 5.55439C106.714 5.55439 108.029 5.86316 109.146 6.48068C110.262 7.0982 111.122 8.05675 111.726 9.35535C112.329 10.655 112.631 12.3592 112.631 14.469V23.7267C112.631 24.6025 111.922 25.313 111.048 25.313H109.177C109.065 25.313 108.974 25.2218 108.974 25.1096V15.4338C108.974 13.684 108.774 12.3531 108.377 11.439C107.978 10.5258 107.426 9.88912 106.721 9.52891C106.014 9.16868 105.2 8.97596 104.275 8.94973C102.709 8.94973 101.49 9.50367 100.618 10.6096C99.7455 11.7164 99.3096 13.2724 99.3096 15.2794V23.7267C99.3096 24.6025 98.6008 25.313 97.727 25.313H96.059L95.8552 25.3134Z" fill="var(--fill-0, #D8DBDF)"/>
<path id="Vector_9" d="M125.047 25.7771C123.172 25.7771 121.517 25.3463 120.08 24.4845C118.642 23.6228 117.513 22.4331 116.691 20.9146C115.87 19.3971 115.459 17.6475 115.459 15.6658C115.459 13.6842 115.87 11.9354 116.691 10.4168C117.513 8.89929 118.648 7.70964 120.099 6.84693C121.549 5.98523 123.21 5.55439 125.085 5.55439C126.856 5.55439 128.409 5.99837 129.744 6.8863C131.079 7.77424 132.125 9.0345 132.882 10.6681C133.615 12.2521 133.993 14.1062 134.016 16.2332C134.017 16.3451 133.926 16.4377 133.814 16.4377H119.411C119.294 16.4377 119.201 16.539 119.211 16.6556C119.371 18.4554 120.001 19.8689 121.099 20.8955C122.241 21.9631 123.646 22.4968 125.316 22.4968C127.768 22.4968 128.657 21.1202 129.126 20.5296C129.684 19.8252 129.708 19.3165 130.743 19.3165H133.073C133.192 19.3165 133.285 19.4248 133.262 19.5422C133.124 20.2325 132.646 21.1859 132.123 22.0078C131.623 22.7927 131 23.4933 130.275 24.0758C129.953 24.3339 129.675 24.5138 129.126 24.8189C127.905 25.4291 126.432 25.7771 125.046 25.7771L125.047 25.7771ZM119.527 13.5428H129.872C129.99 13.5428 130.084 13.442 130.071 13.3243C129.973 12.3902 129.704 11.5951 129.264 10.9375C128.788 10.2302 128.186 9.68328 127.454 9.29682C126.722 8.91139 125.906 8.71765 125.008 8.71765C124.11 8.71765 123.288 8.90433 122.467 9.27766C121.646 9.651 120.96 10.1979 120.408 10.9183C119.922 11.5518 119.571 12.7025 119.459 13.321C119.437 13.4393 119.531 13.5428 119.651 13.5428C119.921 13.5428 119.527 13.5428 119.527 13.5428Z" fill="var(--fill-0, #D8DBDF)"/>
</g>
</svg>
